<svg xmlns="http://www.w3.org/2000/svg" width="281" height="70" viewBox="0 0 281 70"><g transform="translate(-254.482 -145.742)"><path d="M286.943,164.281a4.12,4.12,0,0,0-4.112-4.12h-9.259v-13.4h-1.607a4.121,4.121,0,0,0-4.112,4.12v9.278H254.482v1.61a4.121,4.121,0,0,0,4.112,4.12h9.259v13.4h1.607a4.121,4.121,0,0,0,4.112-4.121v-9.277h13.371Z" fill="#a8f900"/><path d="M296.512,215.742a28.6,28.6,0,0,0,28.544-28.6h-5.51a23.035,23.035,0,1,1-46.07,0h-5.51A28.605,28.605,0,0,0,296.512,215.742Z" fill="#a8f900"/><path d="M414.843,179.281a8.2,8.2,0,0,1-1.9-.227,4.615,4.615,0,0,1-1.716-.792,4.2,4.2,0,0,1-1.243-1.545,5.647,5.647,0,0,1-.483-2.5V156.359h-2.384a1.465,1.465,0,0,1-.76-.154c-.164-.1-.247-.333-.247-.69V153.6c0-.357.082-.579.247-.669a1.657,1.657,0,0,1,.76-.133H409.5V148.41a.726.726,0,0,1,.144-.5,1.1,1.1,0,0,1,.493-.258,3.386,3.386,0,0,1,.5-.093q.38-.051.792-.133.493-.082,1.069-.186a1.164,1.164,0,0,1,.555.041.573.573,0,0,1,.3.247.958.958,0,0,1,.113.381q.02.216.02.463V152.8h2.857a.975.975,0,0,1,.689.205,1.01,1.01,0,0,1,.216.741v1.627a1.089,1.089,0,0,1-.216.762.915.915,0,0,1-.689.226h-2.857v17.814a1.246,1.246,0,0,0,.35,1.009,1.471,1.471,0,0,0,.966.288,1.1,1.1,0,0,1,.781.288,1.048,1.048,0,0,1,.308.8v1.689a1,1,0,0,1-.288.752A1.049,1.049,0,0,1,414.843,179.281Z" fill="#a8f900"/><path d="M422.453,166.023a12.66,12.66,0,0,1,1.06-5.144,13.851,13.851,0,0,1,2.867-4.234,13.49,13.49,0,0,1,4.209-2.87,12.608,12.608,0,0,1,5.107-1.051,12.763,12.763,0,0,1,3.482.475,13.034,13.034,0,0,1,3.159,1.354,13.665,13.665,0,0,1,4.774,4.79,13.248,13.248,0,0,1,1.353,3.173,13.2,13.2,0,0,1,0,7.013,13.062,13.062,0,0,1-1.353,3.162,13.733,13.733,0,0,1-2.089,2.688,13.407,13.407,0,0,1-2.685,2.081,13.267,13.267,0,0,1-3.159,1.344,13,13,0,0,1-6.964,0,13.252,13.252,0,0,1-3.159-1.344,13.461,13.461,0,0,1-4.764-4.77,13.61,13.61,0,0,1-1.352-3.162A12.655,12.655,0,0,1,422.453,166.023Zm4.014,0a9.248,9.248,0,0,0,.727,3.638,9.737,9.737,0,0,0,1.976,3.011,9.571,9.571,0,0,0,2.925,2.061,8.5,8.5,0,0,0,3.59.768,8.385,8.385,0,0,0,3.56-.768,9.482,9.482,0,0,0,2.9-2.061,9.677,9.677,0,0,0,1.957-3.011,9.544,9.544,0,0,0,0-7.255,10,10,0,0,0-1.957-3.062,9.53,9.53,0,0,0-2.9-2.112,8.211,8.211,0,0,0-3.56-.789,8.319,8.319,0,0,0-3.59.789,9.617,9.617,0,0,0-2.925,2.112,10.062,10.062,0,0,0-1.976,3.062A9.3,9.3,0,0,0,426.467,166.023Z" fill="#a8f900"/><path d="M485.54,166.023a12.66,12.66,0,0,1,1.06-5.144,13.836,13.836,0,0,1,2.867-4.234,13.493,13.493,0,0,1,4.208-2.87,12.61,12.61,0,0,1,5.108-1.051,12.765,12.765,0,0,1,3.482.475,13.025,13.025,0,0,1,3.159,1.354,13.67,13.67,0,0,1,4.774,4.79,13.263,13.263,0,0,1,1.353,3.173,13.2,13.2,0,0,1,0,7.013,13.077,13.077,0,0,1-1.353,3.162,13.736,13.736,0,0,1-2.089,2.688,13.314,13.314,0,0,1-5.844,3.425,13,13,0,0,1-6.964,0,13.313,13.313,0,0,1-5.844-3.425,13.414,13.414,0,0,1-2.079-2.688,13.594,13.594,0,0,1-1.352-3.162A12.638,12.638,0,0,1,485.54,166.023Zm4.014,0a9.248,9.248,0,0,0,.726,3.638,9.731,9.731,0,0,0,1.977,3.011,9.571,9.571,0,0,0,2.925,2.061,8.5,8.5,0,0,0,3.59.768,8.385,8.385,0,0,0,3.56-.768,9.49,9.49,0,0,0,2.9-2.061,9.69,9.69,0,0,0,1.957-3.011,9.549,9.549,0,0,0,0-7.255,10.015,10.015,0,0,0-1.957-3.062,9.538,9.538,0,0,0-2.9-2.112,8.21,8.21,0,0,0-3.56-.789,8.319,8.319,0,0,0-3.59.789,9.617,9.617,0,0,0-2.925,2.112,10.056,10.056,0,0,0-1.977,3.062A9.294,9.294,0,0,0,489.553,166.023Z" fill="#a8f900"/><path d="M517.388,173.905a4.734,4.734,0,0,1-.141-.5.569.569,0,0,1,.01-.323.6.6,0,0,1,.161-.232,1.389,1.389,0,0,1,.313-.2l1.916-.889a.713.713,0,0,1,.786.05,1.788,1.788,0,0,1,.444.616,3.6,3.6,0,0,0,.958,1.384,6.279,6.279,0,0,0,1.422.98,7.343,7.343,0,0,0,1.553.576,5.846,5.846,0,0,0,1.352.192,7.332,7.332,0,0,0,1.694-.223,6.625,6.625,0,0,0,1.745-.687,4.451,4.451,0,0,0,1.372-1.2,2.828,2.828,0,0,0,.555-1.748,2.762,2.762,0,0,0-.525-1.758,4.106,4.106,0,0,0-1.361-1.1,8.7,8.7,0,0,0-1.876-.7q-1.039-.263-2.067-.546a17.778,17.778,0,0,1-3.237-1.182,10.138,10.138,0,0,1-2.42-1.617,6.324,6.324,0,0,1-1.523-2.1,6.48,6.48,0,0,1-.524-2.658,6.861,6.861,0,0,1,.625-2.95,6.672,6.672,0,0,1,1.745-2.284,8.076,8.076,0,0,1,2.683-1.475,10.8,10.8,0,0,1,3.459-.525,11.012,11.012,0,0,1,2.673.283,6.715,6.715,0,0,1,1.987.839,7.673,7.673,0,0,1,1.594,1.374q.726.819,1.513,1.89a1.65,1.65,0,0,1,.262.7.7.7,0,0,1-.363.576l-1.573,1.192q-.464.263-.706.142a1.752,1.752,0,0,1-.525-.465q-.464-.545-.908-1.051a5.64,5.64,0,0,0-1.008-.9,4.845,4.845,0,0,0-1.281-.627,5.546,5.546,0,0,0-1.7-.233,7.2,7.2,0,0,0-1.715.2,4.551,4.551,0,0,0-1.483.647,3.412,3.412,0,0,0-1.049,1.122,3.142,3.142,0,0,0-.393,1.606,2.022,2.022,0,0,0,.484,1.3,5.249,5.249,0,0,0,1.231,1.081,8.817,8.817,0,0,0,1.634.829,13.875,13.875,0,0,0,1.715.546,20.353,20.353,0,0,1,3.5,1.132,10.966,10.966,0,0,1,2.713,1.637,6.84,6.84,0,0,1,1.755,2.213,6.365,6.365,0,0,1,.625,2.86,7.026,7.026,0,0,1-.7,3.163,6.914,6.914,0,0,1-1.936,2.385,8.934,8.934,0,0,1-2.955,1.506,12.683,12.683,0,0,1-3.732.526,11.146,11.146,0,0,1-2.612-.324,9.888,9.888,0,0,1-2.531-.99,9.244,9.244,0,0,1-2.158-1.678A6.784,6.784,0,0,1,517.388,173.905Z" fill="#a8f900"/><path d="M480.071,145.985a.89.89,0,0,0-.626-.243h-2.1a.894.894,0,0,0-.677.263.874.874,0,0,0-.253.627v9.832a13.377,13.377,0,0,0-1.686-1.388,13.047,13.047,0,0,0-2.353-1.358,12.155,12.155,0,0,0-4.988-1.022,13.236,13.236,0,0,0-1.485.089l-.123.012c-.093.01-.184.024-.277.035a12.4,12.4,0,0,0-1.609.339,13.077,13.077,0,0,0-3.15,1.355,13.679,13.679,0,0,0-4.775,4.8,13.249,13.249,0,0,0-1.353,3.177,13.215,13.215,0,0,0,0,7.021,13.053,13.053,0,0,0,1.353,3.167,13.711,13.711,0,0,0,2.09,2.691,13.3,13.3,0,0,0,5.846,3.429,12.76,12.76,0,0,0,3.4.473l.083,0a12.268,12.268,0,0,0,4.988-1.012,13.016,13.016,0,0,0,1.661-.893l.1-.063c.156-.1.311-.194.463-.3a13.332,13.332,0,0,0,1.812-1.478q.224-.218.438-.446a13.283,13.283,0,0,0,3.479-9.11v-19.35A.84.84,0,0,0,480.071,145.985Zm-4.179,23.666a9.761,9.761,0,0,1-1.977,3.015,9.55,9.55,0,0,1-2.935,2.064,8.52,8.52,0,0,1-3.581.769,8.385,8.385,0,0,1-3.56-.769,9.492,9.492,0,0,1-2.9-2.064,9.693,9.693,0,0,1-1.957-3.015,9.57,9.57,0,0,1,0-7.264,10.012,10.012,0,0,1,1.957-3.065,9.534,9.534,0,0,1,2.9-2.114,8.205,8.205,0,0,1,3.56-.789,8.336,8.336,0,0,1,3.581.789,9.588,9.588,0,0,1,2.935,2.114,10.081,10.081,0,0,1,1.977,3.065,9.446,9.446,0,0,1,0,7.264Z" fill="#a8f900"/><path d="M329.238,159.594a10.471,10.471,0,0,0-1.814-3.514,8.508,8.508,0,0,0-3-2.369,8.28,8.28,0,0,0-4.152-.955,12.863,12.863,0,0,0-3.615.394,10.206,10.206,0,0,0-2.354.857,8.077,8.077,0,0,0-1.894,1.34,6.413,6.413,0,0,0-1.3,1.733,6.42,6.42,0,0,0-1.3-1.733,8.085,8.085,0,0,0-1.894-1.34,10.212,10.212,0,0,0-2.354-.857,12.864,12.864,0,0,0-3.615-.394,8.282,8.282,0,0,0-4.152.955,8.5,8.5,0,0,0-3,2.369,10.471,10.471,0,0,0-1.814,3.514,14.723,14.723,0,0,0-.61,4.3v13.914a1.572,1.572,0,0,0,.34,1.094,1.265,1.265,0,0,0,.982.372h3.047a1.434,1.434,0,0,0,1.072-.3,1.6,1.6,0,0,0,.271-1.064v-14a7.2,7.2,0,0,1,.3-2.066,5.073,5.073,0,0,1,.933-1.775,4.712,4.712,0,0,1,1.582-1.244,5.083,5.083,0,0,1,2.275-.472,5.269,5.269,0,0,1,2.043.391,4.586,4.586,0,0,1,1.623,1.123,5.325,5.325,0,0,1,1.073,1.765,6.47,6.47,0,0,1,.39,2.3v13.9q0,1.444,1.3,1.444h3.008q1.3,0,1.3-1.444v-13.9a6.47,6.47,0,0,1,.39-2.3,5.325,5.325,0,0,1,1.073-1.765A4.586,4.586,0,0,1,317,158.741a5.269,5.269,0,0,1,2.043-.391,5.083,5.083,0,0,1,2.275.472,4.712,4.712,0,0,1,1.582,1.244,5.066,5.066,0,0,1,.933,1.775,7.2,7.2,0,0,1,.3,2.066v14a1.6,1.6,0,0,0,.271,1.064,1.434,1.434,0,0,0,1.072.3h3.047a1.264,1.264,0,0,0,.982-.372,1.57,1.57,0,0,0,.34-1.094V163.892A14.724,14.724,0,0,0,329.238,159.594Z" fill="#fff"/><path d="M367.922,150.925h3.367a1.1,1.1,0,0,0,.9-.387,1.262,1.262,0,0,0,.321-.821V146.9a1.04,1.04,0,0,0-.341-.849,1.363,1.363,0,0,0-.9-.284H367.9q-1.182,0-1.183,1.133v2.814A1.065,1.065,0,0,0,367.922,150.925Z" fill="#fff"/><path d="M371.31,153.972h-3.327q-1.262,0-1.263,1.2v22.908a1.064,1.064,0,0,0,1.2,1.2h3.328q1.262,0,1.262-1.2V155.177A1.063,1.063,0,0,0,371.31,153.972Z" fill="#fff"/><path d="M381.939,171.562A4.319,4.319,0,0,0,383,172.707a7.247,7.247,0,0,0,1.313.793,6.509,6.509,0,0,0,1.282.452,4.566,4.566,0,0,0,.972.14,8.645,8.645,0,0,0,1.323-.12,5.4,5.4,0,0,0,1.432-.432,3.442,3.442,0,0,0,1.143-.844,1.972,1.972,0,0,0,.47-1.355,2.147,2.147,0,0,0-.37-1.306,2.878,2.878,0,0,0-1-.833,7.122,7.122,0,0,0-1.443-.553q-.813-.221-1.713-.482a16.843,16.843,0,0,1-3.588-1.355A9.212,9.212,0,0,1,380.386,165a6.518,6.518,0,0,1-1.393-2.249,7.814,7.814,0,0,1-.442-2.671,6.82,6.82,0,0,1,.642-2.972A6.721,6.721,0,0,1,381,154.8a8.412,8.412,0,0,1,2.8-1.5,11.628,11.628,0,0,1,3.618-.532,11.338,11.338,0,0,1,2.505.251,8.211,8.211,0,0,1,2.044.753,8.619,8.619,0,0,1,1.773,1.265,19.434,19.434,0,0,1,1.695,1.787,1.121,1.121,0,0,1,.3.7.892.892,0,0,1-.4.683q-.3.242-.711.6t-.812.7a8.114,8.114,0,0,1-.762.582,1.167,1.167,0,0,1-.6.241,1.151,1.151,0,0,1-.861-.522,9.056,9.056,0,0,0-.882-.913,4.635,4.635,0,0,0-.921-.643,4.428,4.428,0,0,0-1.042-.381,5.394,5.394,0,0,0-1.223-.131,4.336,4.336,0,0,0-1.132.16,3.788,3.788,0,0,0-1.081.482,3.127,3.127,0,0,0-.822.773,1.677,1.677,0,0,0-.331,1.014,1.568,1.568,0,0,0,.411,1.094,3.738,3.738,0,0,0,1.039.784,7.661,7.661,0,0,0,1.371.552q.741.221,1.382.4a25.568,25.568,0,0,1,3.381,1.2,10.354,10.354,0,0,1,2.651,1.657,6.966,6.966,0,0,1,1.731,2.289,7.157,7.157,0,0,1,.62,3.082,7.371,7.371,0,0,1-.739,3.343,7.262,7.262,0,0,1-2.047,2.5,9.367,9.367,0,0,1-3.1,1.567,13.393,13.393,0,0,1-3.9.542,12.56,12.56,0,0,1-2.564-.271,10.811,10.811,0,0,1-2.5-.843,9.531,9.531,0,0,1-2.2-1.466,7.932,7.932,0,0,1-1.694-2.118,1.8,1.8,0,0,1-.3-.9.782.782,0,0,1,.131-.452,1.819,1.819,0,0,1,.35-.372l2.245-1.727a1.08,1.08,0,0,1,.541-.181.744.744,0,0,1,.5.191A4.085,4.085,0,0,1,381.939,171.562Z" fill="#fff"/><path d="M361.515,165.422a11.187,11.187,0,0,0-.87-4.468l-.013-.029a13.616,13.616,0,0,0-2.882-4.233,13.387,13.387,0,0,0-1.356-1.163,14.242,14.242,0,0,0-2.952-1.738,13.225,13.225,0,0,0-5.329-1.084,12.4,12.4,0,0,0-5.19,1.076,13.389,13.389,0,0,0-4.136,2.9,13.393,13.393,0,0,0-3.735,9.3c0,.049,0,.1,0,.146a13.368,13.368,0,0,0,3.719,9.194,13.158,13.158,0,0,0,4.132,2.885,12.558,12.558,0,0,0,5.188,1.065,13.582,13.582,0,0,0,4.424-.715c.305-.1.608-.216.906-.343a14.146,14.146,0,0,0,2.5-1.383l.075,1.234a2.316,2.316,0,0,0,.37.863,1.035,1.035,0,0,0,.891.342l2.5,0a4.141,4.141,0,0,0,.651-.05,1.719,1.719,0,0,0,.551-.18,1.023,1.023,0,0,0,.547-.954V165.422Zm-10.371,8.19a7.347,7.347,0,0,1-3.036.63,6.887,6.887,0,0,1-2.955-.634,7.492,7.492,0,0,1-2.353-1.718,7.9,7.9,0,0,1-1.561-2.52,8.469,8.469,0,0,1,0-6.062,7.9,7.9,0,0,1,1.564-2.519,7.632,7.632,0,0,1,2.355-1.724,6.8,6.8,0,0,1,2.956-.641,7.249,7.249,0,0,1,3.035.645,7.912,7.912,0,0,1,2.453,1.728,8.143,8.143,0,0,1,1.641,2.521,7.945,7.945,0,0,1,0,6.063A8.141,8.141,0,0,1,353.6,171.9,7.784,7.784,0,0,1,351.144,173.612Z" fill="#fff"/></g></svg>